<?xml version="1.0" encoding="UTF-8" standalone="no"?>
<!DOCTYPE svg PUBLIC "-//W3C//DTD SVG 1.1//EN" "http://www.w3.org/Graphics/SVG/1.1/DTD/svg11.dtd">
<svg version="1.1" xmlns="http://www.w3.org/2000/svg" xmlns:xlink="http://www.w3.org/1999/xlink" preserveAspectRatio="xMidYMid meet" viewBox="0 0 512 512" width="512" height="512"><defs><path d="M512 0C512 307.2 512 477.86 512 512C512 512 512 512 512 512C204.8 512 34.14 512 0 512C0 512 0 512 0 512C0 204.8 0 34.14 0 0C0 0 0 0 0 0C307.2 0 477.86 0 512 0C512 0 512 0 512 0Z" id="dZSxVAtAS"/><path d="M512 0C512 307.2 512 477.86 512 512C512 512 512 512 512 512C204.8 512 34.14 512 0 512C0 512 0 512 0 512C0 204.8 0 34.14 0 0C0 0 0 0 0 0C307.2 0 477.86 0 512 0C512 0 512 0 512 0Z" id="b4l7YS5MbL"/><path d="M172 140C172 279.2 172 356.54 172 372C172 372 172 372 172 372C104.8 372 67.46 372 60 372C60 372 60 372 60 372C60 232.8 60 155.46 60 140C60 140 60 140 60 140C127.2 140 164.54 140 172 140C172 140 172 140 172 140Z" id="acuQFGGFS"/><path d="M172 140C172 279.2 172 356.54 172 372C172 372 172 372 172 372C104.8 372 67.46 372 60 372C60 372 60 372 60 372C60 232.8 60 155.46 60 140C60 140 60 140 60 140C127.2 140 164.54 140 172 140C172 140 172 140 172 140Z" id="bjjrPN5Ut"/><path d="M118.54 228.9L119.34 228.96L120.12 229.04L120.9 229.14L121.64 229.26L122.38 229.4L123.78 229.72L124.46 229.92L125.12 230.14L125.76 230.36L126.38 230.6L127 230.88L127.58 231.16L128.16 231.46L128.7 231.78L129.24 232.12L129.76 232.48L130.24 232.86L130.72 233.24L131.18 233.66L131.62 234.08L132.02 234.52L132.4 234.98L132.76 235.44L133.1 235.92L133.42 236.42L133.98 237.46L134.22 238L134.44 238.56L134.64 239.14L134.82 239.74L134.96 240.34L135.1 240.96L135.2 241.58L135.28 242.24L135.34 242.9L135.38 243.58L135.38 244.78L135.34 245.78L135.3 246.26L135.26 246.72L135.14 247.64L134.98 248.52L134.88 248.96L134.68 249.8L134.54 250.2L134.42 250.6L134.28 250.98L133.96 251.74L133.6 252.46L133 253.48L132.78 253.8L132.3 254.44L131.78 255.04L131.5 255.34L131.22 255.62L130.92 255.9L130.6 256.18L130.28 256.46L129.6 256.98L129.26 257.24L128.88 257.48L128.5 257.72L128.12 257.96L127.72 258.18L127.3 258.4L126.88 258.62L126.46 258.84L137.14 279.48L137.14 280L123.92 280L114.88 261.92L108.2 261.92L108.2 280L95.86 280L95.86 228.82L116.86 228.82L117.72 228.84L118.54 228.9ZM108.2 252.4L116.02 252.4L117.34 252.32L118.54 252.1L119.6 251.74L120.52 251.24L121.28 250.58L121.94 249.78L122.44 248.86L122.8 247.82L123 246.68L123.08 245.4L123 244.14L122.8 243L122.44 241.96L121.94 241.04L121.28 240.24L120.5 239.56L119.58 239.02L118.52 238.64L117.34 238.42L116.02 238.34L108.2 238.34L108.2 252.4Z" id="bu9asrQAD"/><path d="M118.54 228.9L119.34 228.96L120.12 229.04L120.9 229.14L121.64 229.26L122.38 229.4L123.78 229.72L124.46 229.92L125.12 230.14L125.76 230.36L126.38 230.6L127 230.88L127.58 231.16L128.16 231.46L128.7 231.78L129.24 232.12L129.76 232.48L130.24 232.86L130.72 233.24L131.18 233.66L131.62 234.08L132.02 234.52L132.4 234.98L132.76 235.44L133.1 235.92L133.42 236.42L133.98 237.46L134.22 238L134.44 238.56L134.64 239.14L134.82 239.74L134.96 240.34L135.1 240.96L135.2 241.58L135.28 242.24L135.34 242.9L135.38 243.58L135.38 244.78L135.34 245.78L135.3 246.26L135.26 246.72L135.14 247.64L134.98 248.52L134.88 248.96L134.68 249.8L134.54 250.2L134.42 250.6L134.28 250.98L133.96 251.74L133.6 252.46L133 253.48L132.78 253.8L132.3 254.44L131.78 255.04L131.5 255.34L131.22 255.62L130.92 255.9L130.6 256.18L130.28 256.46L129.6 256.98L129.26 257.24L128.88 257.48L128.5 257.72L128.12 257.96L127.72 258.18L127.3 258.4L126.88 258.62L126.46 258.84L137.14 279.48L137.14 280L123.92 280L114.88 261.92L108.2 261.92L108.2 280L95.86 280L95.86 228.82L116.86 228.82L117.72 228.84L118.54 228.9ZM108.2 252.4L116.02 252.4L117.34 252.32L118.54 252.1L119.6 251.74L120.52 251.24L121.28 250.58L121.94 249.78L122.44 248.86L122.8 247.82L123 246.68L123.08 245.4L123 244.14L122.8 243L122.44 241.96L121.94 241.04L121.28 240.24L120.5 239.56L119.58 239.02L118.52 238.64L117.34 238.42L116.02 238.34L108.2 238.34L108.2 252.4Z" id="a2lX9Lk0s"/><path d="M312 140C312 279.2 312 356.54 312 372C312 372 312 372 312 372C244.8 372 207.46 372 200 372C200 372 200 372 200 372C200 232.8 200 155.46 200 140C200 140 200 140 200 140C267.2 140 304.54 140 312 140C312 140 312 140 312 140Z" id="a3B99QxXi"/><path d="M312 140C312 279.2 312 356.54 312 372C312 372 312 372 312 372C244.8 372 207.46 372 200 372C200 372 200 372 200 372C200 232.8 200 155.46 200 140C200 140 200 140 200 140C267.2 140 304.54 140 312 140C312 140 312 140 312 140Z" id="hTo5OY4hK"/><path d="M258.44 228.88L259.14 228.94L259.82 229.02L260.5 229.12L261.16 229.22L261.82 229.36L262.46 229.5L263.1 229.66L263.72 229.84L264.32 230.04L265.52 230.48L266.1 230.72L266.66 231L267.22 231.26L268.3 231.86L268.8 232.18L269.3 232.52L269.78 232.86L270.24 233.22L270.68 233.6L271.52 234.4L271.92 234.82L272.3 235.26L272.66 235.7L273.02 236.18L273.66 237.14L273.96 237.64L274.24 238.16L274.76 239.2L274.98 239.74L275.18 240.28L275.36 240.82L275.54 241.38L275.68 241.96L275.92 243.12L276 243.72L276.06 244.32L276.12 244.94L276.16 246.18L276.14 247.1L276.08 248L275.96 248.88L275.82 249.74L275.64 250.56L275.4 251.38L275.12 252.16L274.82 252.92L274.46 253.66L274.06 254.38L273.62 255.06L273.14 255.74L272.6 256.38L272.04 257L271.42 257.6L270.78 258.16L270.1 258.7L269.38 259.22L268.64 259.68L267.86 260.12L267.04 260.52L266.2 260.88L265.34 261.22L264.44 261.52L263.5 261.78L262.54 262L261.54 262.2L260.5 262.36L259.44 262.48L258.36 262.56L257.24 262.62L256.08 262.64L248.2 262.64L248.2 280L235.86 280L235.86 228.82L257.02 228.82L257.74 228.84L258.44 228.88ZM248.2 253.1L256.3 253.1L257.66 253.04L258.88 252.82L259.98 252.46L260.92 251.96L261.74 251.32L262.42 250.54L262.96 249.64L263.34 248.62L263.56 247.5L263.64 246.24L263.56 244.88L263.34 243.62L262.94 242.46L262.4 241.44L261.7 240.52L260.88 239.74L259.94 239.14L258.88 238.7L257.72 238.44L256.44 238.34L248.2 238.34L248.2 253.1Z" id="c5Lk82gZTg"/><path d="M258.44 228.88L259.14 228.94L259.82 229.02L260.5 229.12L261.16 229.22L261.82 229.36L262.46 229.5L263.1 229.66L263.72 229.84L264.32 230.04L265.52 230.48L266.1 230.72L266.66 231L267.22 231.26L268.3 231.86L268.8 232.18L269.3 232.52L269.78 232.86L270.24 233.22L270.68 233.6L271.52 234.4L271.92 234.82L272.3 235.26L272.66 235.7L273.02 236.18L273.66 237.14L273.96 237.64L274.24 238.16L274.76 239.2L274.98 239.74L275.18 240.28L275.36 240.82L275.54 241.38L275.68 241.96L275.92 243.12L276 243.72L276.06 244.32L276.12 244.94L276.16 246.18L276.14 247.1L276.08 248L275.96 248.88L275.82 249.74L275.64 250.56L275.4 251.38L275.12 252.16L274.82 252.92L274.46 253.66L274.06 254.38L273.62 255.06L273.14 255.74L272.6 256.38L272.04 257L271.42 257.6L270.78 258.16L270.1 258.7L269.38 259.22L268.64 259.68L267.86 260.12L267.04 260.52L266.2 260.88L265.34 261.22L264.44 261.52L263.5 261.78L262.54 262L261.54 262.2L260.5 262.36L259.44 262.48L258.36 262.56L257.24 262.62L256.08 262.64L248.2 262.64L248.2 280L235.86 280L235.86 228.82L257.02 228.82L257.74 228.84L258.44 228.88ZM248.2 253.1L256.3 253.1L257.66 253.04L258.88 252.82L259.98 252.46L260.92 251.96L261.74 251.32L262.42 250.54L262.96 249.64L263.34 248.62L263.56 247.5L263.64 246.24L263.56 244.88L263.34 243.62L262.94 242.46L262.4 241.44L261.7 240.52L260.88 239.74L259.94 239.14L258.88 238.7L257.72 238.44L256.44 238.34L248.2 238.34L248.2 253.1Z" id="b2KLliGhy"/><path d="M452 140C452 279.2 452 356.54 452 372C452 372 452 372 452 372C384.8 372 347.46 372 340 372C340 372 340 372 340 372C340 232.8 340 155.46 340 140C340 140 340 140 340 140C407.2 140 444.54 140 452 140C452 140 452 140 452 140Z" id="d2FsHMSRi3"/><path d="M452 140C452 279.2 452 356.54 452 372C452 372 452 372 452 372C384.8 372 347.46 372 340 372C340 372 340 372 340 372C340 232.8 340 155.46 340 140C340 140 340 140 340 140C407.2 140 444.54 140 452 140C452 140 452 140 452 140Z" id="bQdi6Ziuy"/><path d="M397.42 280.7C390.72 280.7 385.36 278.66 381.36 274.56C377.34 270.44 375.2 264.74 374.92 257.42C374.92 256.98 374.88 253.44 374.88 253C374.88 247.96 375.78 243.56 377.56 239.82C379.34 236.04 381.88 233.14 385.18 231.14C388.52 229.1 392.36 228.08 396.72 228.08C403.08 228.08 408.04 229.54 411.56 232.46C415.1 235.38 417.16 239.72 417.74 245.52C416.56 245.52 407.04 245.52 405.86 245.52C405.44 242.66 404.52 240.62 403.12 239.4C401.7 238.18 399.72 237.56 397.14 237.56C394.04 237.56 391.66 238.88 389.96 241.5C388.28 244.12 387.42 247.88 387.4 252.76C387.4 253.06 387.4 255.54 387.4 255.84C387.4 260.96 388.26 264.8 390 267.38C391.76 269.94 394.52 271.22 398.26 271.22C401.48 271.22 403.86 270.5 405.44 269.06C405.44 268.54 405.44 265.88 405.44 261.12C404.87 261.12 402.01 261.12 396.86 261.12L396.86 252.64L417.78 252.64C417.78 265.26 417.78 272.28 417.78 273.68C414.66 276.22 411.88 277.92 409.44 278.76C405.78 280.06 401.78 280.7 397.42 280.7Z" id="c9mBshgZoH"/><path d="M397.42 280.7C390.72 280.7 385.36 278.66 381.36 274.56C377.34 270.44 375.2 264.74 374.92 257.42C374.92 256.98 374.88 253.44 374.88 253C374.88 247.96 375.78 243.56 377.56 239.82C379.34 236.04 381.88 233.14 385.18 231.14C388.52 229.1 392.36 228.08 396.72 228.08C403.08 228.08 408.04 229.54 411.56 232.46C415.1 235.38 417.16 239.72 417.74 245.52C416.56 245.52 407.04 245.52 405.86 245.52C405.44 242.66 404.52 240.62 403.12 239.4C401.7 238.18 399.72 237.56 397.14 237.56C394.04 237.56 391.66 238.88 389.96 241.5C388.28 244.12 387.42 247.88 387.4 252.76C387.4 253.06 387.4 255.54 387.4 255.84C387.4 260.96 388.26 264.8 390 267.38C391.76 269.94 394.52 271.22 398.26 271.22C401.48 271.22 403.86 270.5 405.44 269.06C405.44 268.54 405.44 265.88 405.44 261.12C404.87 261.12 402.01 261.12 396.86 261.12L396.86 252.64L417.78 252.64C417.78 265.26 417.78 272.28 417.78 273.68C414.66 276.22 411.88 277.92 409.44 278.76C405.78 280.06 401.78 280.7 397.42 280.7Z" id="f2lwWFLWPB"/></defs><g><g><g><use xlink:href="#dZSxVAtAS" opacity="1" fill="#000000" fill-opacity="1"/><g><use xlink:href="#dZSxVAtAS" opacity="1" fill-opacity="0" stroke="#000000" stroke-width="1" stroke-opacity="0"/></g></g><g><use xlink:href="#b4l7YS5MbL" opacity="1" fill="#000000" fill-opacity="0"/><g><use xlink:href="#b4l7YS5MbL" opacity="1" fill-opacity="0" stroke="#000000" stroke-width="1" stroke-opacity="0"/></g></g><g><use xlink:href="#acuQFGGFS" opacity="1" fill="#000000" fill-opacity="0"/><g><use xlink:href="#acuQFGGFS" opacity="1" fill-opacity="0" stroke="#000000" stroke-width="1" stroke-opacity="0"/></g></g><g><use xlink:href="#bjjrPN5Ut" opacity="1" fill="#000000" fill-opacity="0"/><g><use xlink:href="#bjjrPN5Ut" opacity="1" fill-opacity="0" stroke="#ffffff" stroke-width="2" stroke-opacity="1"/></g></g><g><use xlink:href="#bu9asrQAD" opacity="1" fill="#ffffff" fill-opacity="1"/><g><use xlink:href="#bu9asrQAD" opacity="1" fill-opacity="0" stroke="#000000" stroke-width="1" stroke-opacity="0"/></g></g><g><use xlink:href="#a2lX9Lk0s" opacity="1" fill="#000000" fill-opacity="0"/><g><use xlink:href="#a2lX9Lk0s" opacity="1" fill-opacity="0" stroke="#000000" stroke-width="1" stroke-opacity="0"/></g></g><g><use xlink:href="#a3B99QxXi" opacity="1" fill="#000000" fill-opacity="0"/><g><use xlink:href="#a3B99QxXi" opacity="1" fill-opacity="0" stroke="#000000" stroke-width="1" stroke-opacity="0"/></g></g><g><use xlink:href="#hTo5OY4hK" opacity="1" fill="#000000" fill-opacity="0"/><g><use xlink:href="#hTo5OY4hK" opacity="1" fill-opacity="0" stroke="#ffffff" stroke-width="2" stroke-opacity="1"/></g></g><g><use xlink:href="#c5Lk82gZTg" opacity="1" fill="#ffffff" fill-opacity="1"/><g><use xlink:href="#c5Lk82gZTg" opacity="1" fill-opacity="0" stroke="#000000" stroke-width="1" stroke-opacity="0"/></g></g><g><use xlink:href="#b2KLliGhy" opacity="1" fill="#000000" fill-opacity="0"/><g><use xlink:href="#b2KLliGhy" opacity="1" fill-opacity="0" stroke="#000000" stroke-width="1" stroke-opacity="0"/></g></g><g><use xlink:href="#d2FsHMSRi3" opacity="1" fill="#000000" fill-opacity="0"/><g><use xlink:href="#d2FsHMSRi3" opacity="1" fill-opacity="0" stroke="#000000" stroke-width="1" stroke-opacity="0"/></g></g><g><use xlink:href="#bQdi6Ziuy" opacity="1" fill="#000000" fill-opacity="0"/><g><use xlink:href="#bQdi6Ziuy" opacity="1" fill-opacity="0" stroke="#ffffff" stroke-width="2" stroke-opacity="1"/></g></g><g><use xlink:href="#c9mBshgZoH" opacity="1" fill="#ffffff" fill-opacity="1"/><g><use xlink:href="#c9mBshgZoH" opacity="1" fill-opacity="0" stroke="#000000" stroke-width="1" stroke-opacity="0"/></g></g><g><use xlink:href="#f2lwWFLWPB" opacity="1" fill="#000000" fill-opacity="0"/><g><use xlink:href="#f2lwWFLWPB" opacity="1" fill-opacity="0" stroke="#000000" stroke-width="1" stroke-opacity="0"/></g></g></g></g></svg>